<svg xmlns="http://www.w3.org/2000/svg" width="900" height="980" viewBox="0 0 900 980" fill="none">
  <defs>
    <linearGradient id="bg" x1="80" y1="40" x2="840" y2="920" gradientUnits="userSpaceOnUse">
      <stop offset="0" stop-color="#0B4F6C"/>
      <stop offset="0.45" stop-color="#145A7A"/>
      <stop offset="1" stop-color="#0E7490"/>
    </linearGradient>
    <radialGradient id="halo" cx="0" cy="0" r="1" gradientUnits="userSpaceOnUse" gradientTransform="translate(710 245) rotate(130.5) scale(420 380)">
      <stop stop-color="#93C5FD" stop-opacity="0.42"/>
      <stop offset="1" stop-color="#93C5FD" stop-opacity="0"/>
    </radialGradient>
    <linearGradient id="plate" x1="120" y1="620" x2="770" y2="900" gradientUnits="userSpaceOnUse">
      <stop stop-color="#E2E8F0" stop-opacity="0.3"/>
      <stop offset="1" stop-color="#E2E8F0" stop-opacity="0.08"/>
    </linearGradient>
  </defs>

  <rect width="900" height="980" rx="44" fill="url(#bg)"/>
  <circle cx="710" cy="245" r="260" fill="url(#halo)"/>
  <rect x="72" y="70" width="756" height="840" rx="34" stroke="white" stroke-opacity="0.2"/>

  <g opacity="0.9">
    <circle cx="450" cy="410" r="140" fill="#F8FAFC" fill-opacity="0.95"/>
    <path d="M226 846C248 668 323 582 450 582C577 582 652 668 674 846" fill="url(#plate)" stroke="#F8FAFC" stroke-opacity="0.7" stroke-width="8"/>
  </g>

  <path d="M120 770C266 700 330 676 450 676C570 676 634 700 780 770" stroke="#BAE6FD" stroke-opacity="0.55" stroke-width="6" stroke-dasharray="10 12"/>

  <g>
    <rect x="122" y="86" width="170" height="44" rx="22" fill="#E0F2FE" fill-opacity="0.18"/>
    <text x="148" y="115" fill="#F8FAFC" font-size="22" font-family="ui-sans-serif, system-ui, -apple-system, Segoe UI" letter-spacing="1.5">PROFILE</text>
  </g>
</svg>
